<?xml version="1.0" standalone="no"?>
<!DOCTYPE svg PUBLIC "-//W3C//DTD SVG 20010904//EN"
 "http://www.w3.org/TR/2001/REC-SVG-20010904/DTD/svg10.dtd">
<svg version="1.0" xmlns="http://www.w3.org/2000/svg"
 width="3000.000000pt" height="763.000000pt" viewBox="0 0 3000.000000 763.000000"
 preserveAspectRatio="xMidYMid meet">

<g transform="translate(0.000000,763.000000) scale(0.100000,-0.100000)"
fill="#000000" stroke="none">
<path d="M14420 7625 c-8 -2 -62 -11 -120 -20 -58 -9 -117 -21 -132 -27 l-28
-10 0 -283 c0 -223 -3 -285 -13 -294 -8 -6 -58 -22 -113 -36 -231 -60 -533
-176 -720 -276 -50 -27 -96 -49 -103 -49 -6 0 -104 86 -217 191 -113 104 -216
195 -230 201 -20 9 -34 4 -106 -41 -113 -72 -298 -210 -437 -328 -272 -230
-671 -671 -671 -741 0 -13 48 -65 138 -149 75 -70 172 -162 216 -204 l78 -75
-47 -75 c-104 -161 -234 -447 -300 -659 -18 -58 -36 -113 -40 -122 -7 -17 -31
-18 -315 -18 -266 0 -309 -2 -320 -16 -36 -42 -104 -566 -103 -789 0 -203 59
-677 95 -767 l10 -28 313 0 c289 0 313 -1 320 -17 4 -10 22 -65 40 -123 66
-212 196 -498 301 -662 l46 -72 -78 -75 c-44 -42 -141 -134 -216 -204 -88 -82
-138 -136 -138 -149 0 -37 126 -197 319 -407 113 -123 354 -342 504 -459 138
-108 354 -252 377 -252 10 0 111 87 225 193 114 105 215 196 224 200 13 6 45
-6 112 -41 192 -102 535 -233 741 -282 44 -10 86 -24 94 -31 11 -9 14 -62 14
-288 0 -152 4 -281 8 -287 11 -16 36 -23 143 -39 144 -22 1274 -22 1418 0 54
8 111 19 125 25 l26 10 0 284 c0 233 3 286 14 295 8 7 50 21 94 31 205 49 549
180 740 281 51 27 97 49 103 49 5 0 98 -82 205 -183 193 -179 238 -217 261
-217 17 0 251 159 370 252 154 120 393 338 508 464 189 206 315 367 315 402 0
14 -72 88 -215 222 -118 111 -215 203 -215 205 0 2 22 39 49 83 111 179 229
439 296 652 18 58 36 113 40 123 7 16 31 17 315 17 266 0 309 2 320 16 35 42
103 559 103 784 0 199 -59 682 -95 773 l-10 27 -313 0 c-289 0 -313 1 -320 18
-4 9 -22 64 -40 122 -67 214 -184 473 -294 650 l-53 84 79 76 c43 41 140 133
216 203 87 82 137 136 137 149 0 70 -382 494 -660 732 -193 165 -502 386 -541
386 -10 0 -110 -87 -224 -192 -114 -106 -215 -197 -225 -202 -14 -6 -42 4
-112 42 -189 101 -490 217 -722 277 -55 14 -105 30 -113 36 -10 9 -13 70 -13
289 0 239 -2 279 -16 291 -8 7 -61 21 -117 32 -94 19 -150 20 -697 23 -327 1
-602 1 -610 -1z m1135 -1488 c28 -2 61 -7 73 -11 13 -5 34 -10 45 -11 12 -2
40 -9 62 -15 22 -7 52 -14 68 -17 15 -3 30 -9 33 -14 3 -5 18 -9 35 -9 16 0
29 -4 29 -10 0 -5 5 -10 11 -10 47 0 306 -162 370 -231 19 -22 38 -36 42 -32
4 3 7 1 7 -6 0 -6 13 -24 29 -40 37 -36 161 -217 161 -235 0 -7 7 -19 15 -26
9 -7 13 -15 11 -18 -3 -2 1 -17 9 -32 22 -43 49 -131 75 -247 6 -29 12 -124
12 -210 1 -146 -1 -163 -24 -223 -41 -104 -62 -150 -70 -150 -5 0 -8 -5 -8
-11 0 -19 -126 -191 -182 -249 -29 -30 -80 -77 -112 -105 -32 -27 -71 -60 -85
-72 -32 -27 -186 -139 -238 -172 -127 -81 -202 -124 -314 -179 -69 -34 -131
-62 -137 -62 -7 0 -12 -4 -12 -8 0 -5 -6 -9 -12 -9 -7 0 -29 -7 -48 -15 -19
-9 -64 -25 -100 -37 -36 -12 -76 -27 -89 -34 -13 -6 -29 -12 -35 -13 -35 -2
-97 -18 -102 -25 -3 -5 -20 -9 -37 -9 -43 -1 -70 -20 -51 -38 8 -7 14 -10 14
-7 0 10 455 -445 512 -512 29 -34 100 -115 158 -180 99 -111 123 -139 167
-189 10 -12 45 -52 78 -89 33 -38 98 -112 143 -164 46 -53 92 -103 101 -111
10 -8 45 -47 78 -85 109 -125 307 -320 383 -376 58 -43 131 -72 205 -79 83 -9
105 -17 105 -37 0 -24 -56 -69 -129 -106 -77 -39 -296 -109 -391 -126 -75 -14
-386 -18 -414 -6 -11 5 -17 5 -14 -1 4 -5 -19 -7 -55 -4 l-62 4 49 6 49 5 -46
14 c-26 7 -47 17 -47 22 0 5 -6 9 -12 9 -11 0 -86 59 -110 87 -4 4 -24 26 -43
48 -33 37 -156 214 -181 260 -6 11 -30 49 -52 85 -23 36 -49 80 -58 98 -9 17
-20 32 -25 32 -5 0 -9 4 -9 9 0 12 -225 357 -251 384 -10 12 -19 26 -19 33 0
7 -3 14 -8 16 -4 2 -40 48 -80 103 -40 55 -87 116 -103 135 -46 54 -102 123
-124 154 -11 16 -30 38 -41 50 -12 11 -41 44 -64 71 -71 85 -303 314 -312 309
-4 -3 -15 -21 -23 -40 -14 -34 -14 -36 13 -61 15 -14 18 -19 7 -12 -20 14 -91
77 -126 113 -10 11 -21 18 -23 15 -13 -13 -198 -512 -213 -574 -3 -11 -8 -29
-13 -40 -8 -19 -32 -113 -65 -260 -8 -38 -18 -79 -21 -90 -3 -11 -11 -88 -18
-172 -8 -92 -18 -158 -26 -167 -15 -19 -58 -20 -114 -4 -49 14 -135 59 -164
85 -7 7 -17 13 -21 13 -16 0 -148 113 -231 198 -91 93 -134 163 -134 217 0 33
18 106 35 137 5 10 9 25 9 33 0 8 5 15 10 15 6 0 10 7 10 15 0 8 4 23 9 33 10
17 23 55 22 60 -1 1 9 23 23 50 13 26 27 58 31 72 4 14 14 33 23 43 8 9 12 17
8 17 -4 0 -4 6 1 13 4 6 8 19 10 27 1 8 7 16 12 18 6 2 11 9 11 16 0 7 14 44
30 82 17 38 35 78 39 89 5 11 18 41 30 67 12 26 21 52 21 58 0 5 4 10 9 10 5
0 11 13 14 29 4 16 20 58 37 94 16 35 30 69 30 75 0 7 5 12 10 12 6 0 10 11
10 25 0 14 4 25 9 25 5 0 11 11 13 24 4 20 1 23 -24 24 -16 0 -26 -4 -23 -9 4
-5 -14 -9 -40 -9 -26 0 -44 4 -40 9 11 19 -13 20 -70 6 -32 -9 -60 -13 -63
-11 -2 3 -12 1 -22 -4 -9 -5 -38 -5 -66 -1 -27 5 -39 9 -26 10 12 0 22 7 22
15 0 46 161 235 288 339 l62 51 -25 26 -25 26 22 11 c13 6 37 16 55 21 29 10
32 8 38 -15 l6 -25 36 22 c19 11 51 24 71 28 19 4 38 14 42 22 49 98 155 411
195 573 42 167 45 185 45 233 l0 46 -42 -54 c-23 -29 -45 -54 -50 -56 -4 -2
-8 -8 -8 -12 0 -5 -14 -31 -31 -57 -17 -26 -29 -40 -25 -30 3 10 6 34 6 53 0
21 4 33 10 29 6 -4 10 22 10 70 0 44 -4 75 -9 73 -8 -2 -74 -82 -119 -143 -25
-34 -46 -71 -44 -78 1 -4 -5 -10 -13 -13 -8 -4 -15 -10 -15 -16 0 -5 -14 -29
-30 -54 -17 -24 -28 -44 -25 -44 4 0 -5 -20 -19 -44 -14 -24 -27 -53 -29 -64
-2 -11 -8 -26 -14 -34 -25 -30 -76 -219 -92 -338 -5 -36 -13 -80 -17 -99 -7
-33 -7 -33 17 -21 22 12 21 10 -4 -14 -15 -14 -31 -26 -34 -26 -12 0 -93 -68
-183 -154 l-95 -91 85 88 c47 48 106 104 132 124 39 31 45 39 35 54 -6 10 -14
16 -18 13 -4 -2 -18 6 -33 17 -14 11 -26 18 -26 14 0 -9 -115 122 -162 185
-23 30 -54 72 -70 92 -15 20 -28 42 -28 47 0 6 -4 11 -10 11 -5 0 -10 7 -10
15 0 8 -4 15 -8 15 -13 0 -97 168 -112 222 -7 26 -10 62 -6 79 14 72 137 293
178 320 6 3 9 9 9 13 -1 7 37 51 92 106 20 21 37 43 37 49 0 6 8 15 18 18 9 4
28 19 42 33 30 32 121 113 180 159 23 19 48 40 54 45 18 17 146 101 199 131
50 27 254 132 262 134 16 4 46 16 82 32 24 10 47 19 53 19 6 0 18 4 28 9 9 5
37 15 62 22 25 7 50 16 55 19 6 4 38 13 73 21 62 13 82 28 40 30 -22 1 -22 1
2 9 32 10 62 11 36 1 -38 -15 7 -19 59 -5 28 7 73 16 100 20 47 7 48 8 20 15
-25 6 -21 7 25 10 30 2 79 4 108 4 28 1 55 5 59 9 7 7 540 1 638 -7z m-888
-23 c-3 -3 -12 -4 -19 -1 -8 3 -5 6 6 6 11 1 17 -2 13 -5z m-44 -11 c-7 -2
-21 -2 -30 0 -10 3 -4 5 12 5 17 0 24 -2 18 -5z m-168 -33 c-11 -5 -29 -8 -40
-8 -16 0 -15 2 5 8 34 11 60 11 35 0z m-80 -20 c-11 -5 -27 -9 -35 -9 -9 0 -8
4 5 9 11 5 27 9 35 9 9 0 8 -4 -5 -9z m-88 -26 c-3 -3 -12 -4 -19 -1 -8 3 -5
6 6 6 11 1 17 -2 13 -5z m-60 -20 c-3 -3 -12 -4 -19 -1 -8 3 -5 6 6 6 11 1 17
-2 13 -5z m-47 -13 c-8 -5 -26 -11 -40 -15 -21 -5 -20 -3 5 9 32 15 60 20 35
6z m-105 -41 c-22 -10 -44 -18 -50 -18 -5 0 8 8 30 19 22 10 45 18 50 18 6 0
-8 -9 -30 -19z m-85 -35 c-14 -8 -29 -14 -35 -14 -5 0 1 6 15 14 14 8 30 14
35 14 6 0 -1 -6 -15 -14z m-87 -44 c-12 -10 -19 -22 -15 -25 3 -4 -1 -4 -11 0
-25 9 -21 21 11 32 38 15 40 14 15 -7z m-293 -165 c0 -2 -7 -7 -16 -10 -8 -3
-12 -2 -9 4 6 10 25 14 25 6z m-70 -40 c0 -2 -8 -10 -17 -17 -16 -13 -17 -12
-4 4 13 16 21 21 21 13z m-40 -29 c0 -2 -10 -12 -22 -23 l-23 -19 19 23 c18
21 26 27 26 19z m-50 -40 c0 -2 -12 -14 -27 -28 l-28 -24 24 28 c23 25 31 32
31 24z m-60 -51 c0 -2 -8 -10 -17 -17 -16 -13 -17 -12 -4 4 13 16 21 21 21 13z
m-40 -40 c0 -2 -8 -10 -17 -17 -16 -13 -17 -12 -4 4 13 16 21 21 21 13z m-81
-72 c-75 -79 -140 -145 -114 -114 42 50 128 140 134 140 2 0 -6 -12 -20 -26z
m-149 -167 c0 -2 -10 -12 -22 -23 l-23 -19 19 23 c18 21 26 27 26 19z m-62
-81 c-13 -19 -24 -33 -26 -31 -5 4 37 65 44 65 2 0 -6 -15 -18 -34z m-90 -141
c-6 -14 -13 -23 -15 -21 -5 5 15 46 22 46 3 0 -1 -11 -7 -25z m-30 -65 c-5
-17 -15 -33 -21 -37 -5 -3 -7 -2 -4 4 4 6 11 22 16 37 14 36 22 33 9 -4z
m1022 -97 c-11 -17 -11 -17 -6 0 3 10 6 24 7 30 0 9 2 9 5 0 3 -7 0 -20 -6
-30z m-18 -65 c-8 -8 -9 -4 -5 13 4 13 8 18 11 10 2 -7 -1 -18 -6 -23z m-1005
-30 c-3 -8 -6 -5 -6 6 -1 11 2 17 5 13 3 -3 4 -12 1 -19z m21 -43 c-3 -3 -9 2
-12 12 -6 14 -5 15 5 6 7 -7 10 -15 7 -18z m27 -45 c9 -16 13 -30 11 -30 -3 0
-12 14 -21 30 -9 17 -13 30 -11 30 3 0 12 -13 21 -30z m75 -120 c12 -16 19
-30 16 -30 -2 0 -14 14 -26 30 -12 17 -19 30 -16 30 2 0 14 -13 26 -30z m801
-13 c-10 -9 -11 -8 -5 6 3 10 9 15 12 12 3 -3 0 -11 -7 -18z m-30 -88 c-11
-24 -20 -41 -20 -37 -1 12 31 89 35 85 3 -2 -4 -24 -15 -48z m-661 -49 c30
-43 18 -37 -16 7 -15 20 -23 33 -16 29 6 -3 21 -20 32 -36z m105 -120 c38 -38
67 -70 64 -70 -2 0 -36 32 -74 70 -38 39 -67 70 -64 70 2 0 36 -31 74 -70z
m160 -109 c-3 -6 -11 -11 -16 -11 -5 0 -4 6 3 14 14 16 24 13 13 -3z m-181
-296 c-14 -19 -29 -35 -31 -35 -5 0 7 18 36 53 26 31 23 18 -5 -18z m-41 -60
c-3 -9 -8 -14 -10 -11 -3 3 -2 9 2 15 9 16 15 13 8 -4z m317 -112 c-11 -17
-11 -17 -6 0 3 10 6 24 7 30 0 9 2 9 5 0 3 -7 0 -20 -6 -30z m-69 -160 c-12
-20 -14 -14 -5 12 4 9 9 14 11 11 3 -2 0 -13 -6 -23z m-38 -88 c-3 -9 -8 -14
-10 -11 -3 3 -2 9 2 15 9 16 15 13 8 -4z m-62 -138 c-10 -9 -11 -8 -5 6 3 10
9 15 12 12 3 -3 0 -11 -7 -18z m-40 -94 c-12 -20 -14 -14 -5 12 4 9 9 14 11
11 3 -2 0 -13 -6 -23z m1286 -198 c41 -49 51 -63 21 -30 -29 33 -96 105 -148
160 -79 83 -82 88 -21 30 40 -38 106 -110 148 -160z m-1306 152 c-10 -9 -11
-8 -5 6 3 10 9 15 12 12 3 -3 0 -11 -7 -18z m-108 -242 c-3 -9 -8 -14 -10 -11
-3 3 -2 9 2 15 9 16 15 13 8 -4z m1518 -32 c13 -16 12 -17 -3 -4 -10 7 -18 15
-18 17 0 8 8 3 21 -13z m30 -40 c13 -16 12 -17 -3 -4 -10 7 -18 15 -18 17 0 8
8 3 21 -13z m69 -83 c17 -22 30 -40 27 -40 -3 0 -22 21 -43 47 -21 26 -33 44
-27 40 6 -4 26 -25 43 -47z m-1679 7 c-10 -9 -11 -8 -5 6 3 10 9 15 12 12 3
-3 0 -11 -7 -18z m-20 -50 c-10 -9 -11 -8 -5 6 3 10 9 15 12 12 3 -3 0 -11 -7
-18z m1759 -37 c12 -16 19 -30 16 -30 -2 0 -14 14 -26 30 -12 17 -19 30 -16
30 2 0 14 -13 26 -30z m60 -80 c30 -43 18 -37 -16 7 -15 20 -23 33 -16 29 6
-3 21 -20 32 -36z m101 -142 c19 -34 2 -17 -30 30 -25 35 -26 40 -6 17 14 -16
30 -38 36 -47z m-1927 46 c3 -8 2 -12 -4 -9 -6 3 -10 10 -10 16 0 14 7 11 14
-7z m62 -86 l29 -33 -32 29 c-31 28 -38 36 -30 36 2 0 16 -15 33 -32z m1904
-19 c15 -28 5 -23 -15 7 -9 15 -12 23 -6 20 6 -4 16 -16 21 -27z m-1840 -54
c19 -19 32 -35 29 -35 -3 0 -20 16 -39 35 -19 19 -32 35 -29 35 3 0 20 -16 39
-35z m1880 -6 c15 -28 5 -23 -15 7 -9 15 -12 23 -6 20 6 -4 16 -16 21 -27z
m-1804 -61 l29 -33 -32 29 c-31 28 -38 36 -30 36 2 0 16 -15 33 -32z m1844 1
c15 -28 5 -23 -15 7 -9 15 -12 23 -6 20 6 -4 16 -16 21 -27z m40 -60 c15 -28
5 -23 -15 7 -9 15 -12 23 -6 20 6 -4 16 -16 21 -27z m-1819 4 c13 -16 12 -17
-3 -4 -10 7 -18 15 -18 17 0 8 8 3 21 -13z m40 -30 c13 -16 12 -17 -3 -4 -10
7 -18 15 -18 17 0 8 8 3 21 -13z m1820 -40 c13 -16 12 -17 -3 -4 -10 7 -18 15
-18 17 0 8 8 3 21 -13z m-1716 -28 l20 -16 -20 10 c-11 5 -29 17 -40 26 l-20
16 20 -10 c11 -5 29 -17 40 -26z m1745 -15 c6 -11 8 -20 6 -20 -3 0 -10 9 -16
20 -6 11 -8 20 -6 20 3 0 10 -9 16 -20z m-1562 -47 c-10 -2 -28 -2 -40 0 -13
2 -5 4 17 4 22 1 32 -1 23 -4z m1612 -33 c6 -11 8 -20 6 -20 -3 0 -10 9 -16
20 -6 11 -8 20 -6 20 3 0 10 -9 16 -20z m320 -457 l75 -78 -77 75 c-43 41 -78
76 -78 77 0 8 11 -3 80 -74z m150 -111 c-9 -3 -70 25 -70 33 0 2 18 -4 40 -13
21 -9 35 -18 30 -20z"/>
<path d="M15209 5786 c-2 -3 -36 -7 -74 -10 -39 -3 -84 -9 -102 -15 -17 -5
-34 -7 -36 -5 -10 10 -237 -58 -264 -79 -7 -5 -17 -6 -22 -3 -5 4 -12 2 -16
-4 -3 -5 -12 -10 -20 -10 -17 0 -200 -88 -275 -132 -80 -48 -169 -111 -215
-153 -116 -106 -135 -125 -135 -133 0 -4 11 -9 26 -10 14 -1 34 -6 44 -12 13
-7 21 -7 25 0 8 12 105 13 105 1 0 -7 33 -21 60 -25 3 -1 12 -7 20 -13 53 -45
80 -64 80 -57 0 4 49 -42 110 -101 87 -87 116 -123 145 -181 59 -119 54 -152
-67 -459 -33 -82 -71 -174 -84 -203 -13 -29 -24 -57 -24 -62 0 -5 -9 -25 -21
-44 -18 -30 -19 -38 -7 -48 51 -47 104 -49 196 -8 61 27 65 26 15 -7 -15 -10
-16 -13 -4 -22 21 -14 141 34 256 102 28 16 66 39 85 50 59 34 84 50 180 117
51 36 100 70 109 75 9 6 18 12 21 15 3 3 34 28 70 55 80 60 131 105 240 215
193 193 294 355 326 522 16 82 16 94 1 179 -9 51 -23 99 -31 108 -8 9 -15 21
-17 26 -3 18 -66 109 -95 140 -72 74 -138 116 -233 151 -74 27 -197 44 -171
24 13 -10 12 -11 -5 -5 -52 17 -185 31 -196 21z m255 -35 c4 -5 -3 -7 -14 -4
-23 6 -26 13 -6 13 8 0 17 -4 20 -9z m86 -47 c0 -2 -13 2 -30 11 -16 9 -30 18
-30 21 0 2 14 -2 30 -11 17 -9 30 -18 30 -21z m158 -132 c40 -49 92 -132 92
-148 0 -5 -17 20 -37 56 -20 35 -69 96 -107 134 -45 45 -56 58 -29 38 23 -18
59 -54 81 -80z m119 -254 c-3 -8 -6 -5 -6 6 -1 11 2 17 5 13 3 -3 4 -12 1 -19z
m10 -120 c-2 -18 -4 -4 -4 32 0 36 2 50 4 33 2 -18 2 -48 0 -65z m-10 -70 c-3
-8 -6 -5 -6 6 -1 11 2 17 5 13 3 -3 4 -12 1 -19z m-27 -100 c-11 -30 -27 -63
-35 -74 -11 -12 -9 -5 3 21 11 22 26 60 33 84 7 24 15 39 16 34 2 -6 -5 -35
-17 -65z m-69 -135 c-5 -10 -17 -27 -26 -38 -16 -19 -17 -19 -3 5 26 46 29 50
34 50 3 0 0 -8 -5 -17z m-41 -67 c0 -2 -8 -10 -17 -17 -16 -13 -17 -12 -4 4
13 16 21 21 21 13z m-58 -73 c-17 -21 -52 -58 -78 -83 -28 -27 -17 -11 27 37
79 89 99 106 51 46z m-232 -238 c-30 -31 -82 -76 -115 -101 -45 -34 -49 -36
-15 -7 25 21 74 66 110 100 81 78 93 82 20 8z m-180 -149 c0 -2 -8 -10 -17
-17 -16 -13 -17 -12 -4 4 13 16 21 21 21 13z m-40 -30 c0 -4 -84 -66 -110 -81
-27 -15 -1 8 53 46 54 40 57 42 57 35z m-130 -90 c0 -2 -8 -10 -17 -17 -16
-13 -17 -12 -4 4 13 16 21 21 21 13z m-55 -42 c-26 -20 -55 -36 -55 -30 0 5
63 46 70 46 3 -1 -4 -8 -15 -16z m-95 -59 c0 -2 -10 -9 -22 -15 -22 -11 -22
-10 -4 4 21 17 26 19 26 11z m-50 -29 c0 -5 -69 -46 -78 -46 -6 1 69 50 76 50
1 0 2 -2 2 -4z m-95 -56 c-3 -5 -12 -10 -18 -10 -7 0 -6 4 3 10 19 12 23 12
15 0z"/>
</g>
</svg>
